<svg version="1.1" xmlns="http://www.w3.org/2000/svg" xmlns:xlink="http://www.w3.org/1999/xlink" width="800px" height="800px" viewBox="0,0,256,256"><g fill="#37c3bf" fill-rule="evenodd" stroke="none" stroke-width="1" stroke-linecap="butt" stroke-linejoin="miter" stroke-miterlimit="10" stroke-dasharray="" stroke-dashoffset="0" font-family="none" font-weight="none" font-size="none" text-anchor="none" style="mix-blend-mode: normal"><g transform="translate(0,4.7008) scale(10.66667,10.66667)"><path d="M4.98488,2c-1.36942,0 -2.38271,1.19858 -2.33735,2.49844c0.04352,1.24881 -0.01302,2.86617 -0.42021,4.18515c-0.4084,1.32281 -1.09912,2.16081 -2.22732,2.26841v1.2146c1.1282,0.1076 1.81892,0.9456 2.22732,2.2685c0.40719,1.3189 0.46373,2.9363 0.42021,4.1851c-0.04536,1.2997 0.96793,2.4984 2.33755,2.4984h14.03182c1.3695,0 2.3826,-1.1985 2.3372,-2.4984c-0.0435,-1.2488 0.013,-2.8662 0.4202,-4.1851c0.4086,-1.3229 1.0975,-2.1609 2.2257,-2.2685v-1.2146c-1.1282,-0.1076 -1.8171,-0.9456 -2.2257,-2.26841c-0.4072,-1.31878 -0.4637,-2.93634 -0.4202,-4.18515c0.0454,-1.29966 -0.9677,-2.49844 -2.3372,-2.49844h-14.03222zM16.2712,13.7687c0,1.7899 -1.3351,2.8754 -3.5506,2.8754h-3.77145c-0.10788,0 -0.21135,-0.0429 -0.28763,-0.1192c-0.07629,-0.0763 -0.11915,-0.1797 -0.11915,-0.2876v-9.35594c0,-0.10789 0.04286,-0.21135 0.11915,-0.28764c0.07628,-0.07629 0.17975,-0.11914 0.28763,-0.11914h3.74995c1.8473,0 3.0597,1.00067 3.0597,2.53708c0,1.07834 -0.8155,2.04384 -1.8547,2.21284v0.0564c1.4146,0.1552 2.3671,1.1347 2.3671,2.4878zM12.3094,7.76407h-2.1505v3.03743h1.8112c1.4001,0 2.1722,-0.5638 2.1722,-1.5716c0,-0.94434 -0.6639,-1.46583 -1.8329,-1.46583zM10.1589,12.0068v3.3474h2.2296c1.4577,0 2.2299,-0.585 2.2299,-1.6843c0,-1.0995 -0.7938,-1.6633 -2.3237,-1.6633h-2.1358z"></path></g></g></svg>