<svg version="1.1" xmlns="http://www.w3.org/2000/svg" xmlns:xlink="http://www.w3.org/1999/xlink" width="800px" height="800px" viewBox="0,0,256,256"><g fill="#37c3bf" fill-rule="nonzero" stroke="none" stroke-width="1" stroke-linecap="butt" stroke-linejoin="miter" stroke-miterlimit="10" stroke-dasharray="" stroke-dashoffset="0" font-family="none" font-weight="none" font-size="none" text-anchor="none" style="mix-blend-mode: normal"><g transform="translate(0,0.00025) scale(0.5,0.5)"><g id="c133de6af664cd4f011a55de6b001a2b"><path d="M204.064,46.682v22.018h-56.302v-68.199h56.302v24.13h-32.172v22.051zM261.941,24.631h22.492v-24.13h-56.308c0,0 0,12.112 0,24.13c7.533,7.533 11.461,11.139 22.356,22.034c-6.369,0 -22.356,0.022 -22.356,0.021v22.014h56.308v-22.018zM341.746,24.631h22.49v-24.13h-56.306c0,0 0,12.112 0,24.13c7.531,7.533 11.461,11.139 22.355,22.034c-6.365,0 -22.355,0.022 -22.355,0.021v22.014h56.307v-22.018zM438.395,101.112l-34.203,370.486l-148.193,39.9l-148.196,-39.9l-34.198,-370.486zM369.477,176.444h-113.612h-115.62l5.529,44.739h110.091h6.184l-6.184,2.574l-106.067,44.177l3.518,43.73l102.549,0.333l54.963,0.175l-3.521,58.311l-51.442,14.484v-0.046l-0.422,0.116l-49.684,-12.542l-3.015,-36.195h-0.164h-46.085h-0.162l6.032,69.876l93.5,27.649v-0.05l0.168,0.05l93,-27.146l12.067,-138.744h-105.235h-0.26l0.26,-0.112l109.086,-46.639z"></path></g></g></g></svg>