<svg version="1.1" xmlns="http://www.w3.org/2000/svg" xmlns:xlink="http://www.w3.org/1999/xlink" width="800px" height="800px" viewBox="0,0,256,256"><g fill="#37c3bf" fill-rule="nonzero" stroke="none" stroke-width="1" stroke-linecap="butt" stroke-linejoin="miter" stroke-miterlimit="10" stroke-dasharray="" stroke-dashoffset="0" font-family="none" font-weight="none" font-size="none" text-anchor="none" style="mix-blend-mode: normal"><g transform="translate(0.00025,0) scale(0.5,0.5)"><g id="c133de6af664cd4f011a55de6b000d0b"><path d="M108.669,0.501h23.032v22.756h21.069v-22.756h23.034v68.909h-23.032v-23.076h-21.069v23.076h-23.032v-68.909zM206.091,23.353h-20.275v-22.852h63.594v22.852h-20.285v46.057h-23.032v-46.057zM259.502,0.501h24.02l14.771,24.213l14.759,-24.213h24.023v68.909h-22.938v-34.154l-15.845,24.5h-0.395l-15.856,-24.5v34.154h-22.539zM348.54,0.501h23.038v46.133h32.391v22.776h-55.429zM74.987,100.926l32.946,369.533l147.844,41.04l148.254,-41.099l32.981,-369.475h-362.025zM368.289,188.62l-2.063,22.977l-0.906,10.188h-0.149h-109.171h-0.158h-63.956l4.142,46.407h59.814h0.158h92.98h12.214l-1.106,12.172l-10.65,119.32l-0.682,7.652l-92.756,25.709v0.008l-0.208,0.059l-92.839,-25.774l-6.351,-71.161h20.97h24.527l3.227,36.146l50.474,13.632l0.042,-0.013v-0.004l50.551,-13.64l5.257,-58.781h-55.65h-0.158h-101.264l-11.139,-124.897l-1.085,-12.157h113.488h0.158h113.374z"></path></g></g></g></svg>