<svg version="1.1" xmlns="http://www.w3.org/2000/svg" xmlns:xlink="http://www.w3.org/1999/xlink" width="800px" height="800px" viewBox="0,0,256,256"><g fill="#37c3bf" fill-rule="evenodd" stroke="none" stroke-width="1" stroke-linecap="butt" stroke-linejoin="miter" stroke-miterlimit="10" stroke-dasharray="" stroke-dashoffset="0" font-family="none" font-weight="none" font-size="none" text-anchor="none" style="mix-blend-mode: normal"><g transform="translate(-5.33333,0) scale(10.66667,10.66667)"><path d="M9.29289,1.29289c0.18754,-0.18753 0.44189,-0.29289 0.70711,-0.29289h8c1.6569,0 3,1.34315 3,3v5c0,0.55228 -0.4477,1 -1,1c-0.5523,0 -1,-0.44772 -1,-1v-5c0,-0.55228 -0.4477,-1 -1,-1h-7v5c0,0.55228 -0.4477,1 -1,1h-5v11c0,0.5523 0.44772,1 1,1h1c0.55228,0 1,0.4477 1,1c0,0.5523 -0.44772,1 -1,1h-1c-1.65685,0 -3,-1.3431 -3,-3v-12c0,-0.26522 0.10536,-0.51957 0.29289,-0.70711zM6.41421,7h2.58579v-2.58579zM16,14.75c0,-1.5188 1.2312,-2.75 2.75,-2.75h2.25c0.5523,0 1,0.4477 1,1c0,0.5523 -0.4477,1 -1,1h-2.25c-0.4142,0 -0.75,0.3358 -0.75,0.75c0,0.4142 0.3358,0.75 0.75,0.75h0.5c1.5188,0 2.75,1.2312 2.75,2.75c0,1.5188 -1.2312,2.75 -2.75,2.75h-2.25c-0.5523,0 -1,-0.4477 -1,-1c0,-0.5523 0.4477,-1 1,-1h2.25c0.4142,0 0.75,-0.3358 0.75,-0.75c0,-0.4142 -0.3358,-0.75 -0.75,-0.75h-0.5c-1.5188,0 -2.75,-1.2312 -2.75,-2.75zM15,13c0,-0.5523 -0.4477,-1 -1,-1c-0.5523,0 -1,0.4477 -1,1v5c0,0.5523 -0.4477,1 -1,1c-0.5523,0 -1,-0.4477 -1,-1v-0.3333c0,-0.5523 -0.4477,-1 -1,-1c-0.55228,0 -1,0.4477 -1,1v0.3333c0,1.6569 1.3431,3 3,3c1.6569,0 3,-1.3431 3,-3z"></path></g></g></svg>