<svg version="1.1" xmlns="http://www.w3.org/2000/svg" xmlns:xlink="http://www.w3.org/1999/xlink" width="800px" height="800px" viewBox="0,0,256,256"><g fill="none" fill-rule="nonzero" stroke="#37c3bf" stroke-width="2" stroke-linecap="butt" stroke-linejoin="miter" stroke-miterlimit="10" stroke-dasharray="" stroke-dashoffset="0" font-family="none" font-weight="none" font-size="none" text-anchor="none" style="mix-blend-mode: normal"><g transform="translate(0,0) scale(10.66667,10.66667)"><path d="M16.12519,2.42027c0.78439,-0.78439 2.05665,-0.78389 2.83914,-0.00139l2.61679,2.61679c0.78363,0.78362 0.79127,2.04648 -0.00139,2.83914l-3.70492,3.70492c-0.78439,0.78439 -2.05665,0.78389 -2.83914,0.00139l-2.61679,-2.61679c-0.78362,-0.78362 -0.79127,-2.04648 0.00139,-2.83914zM6.12519,12.42027c0.78439,-0.78439 2.05665,-0.78389 2.83914,-0.00139l2.61679,2.61679c0.78362,0.78362 0.79127,2.04648 -0.00139,2.83914l-3.70492,3.70492c-0.78439,0.78439 -2.05665,0.78389 -2.83914,0.00139l-2.61679,-2.61679c-0.78362,-0.78363 -0.79127,-2.04648 0.00139,-2.83914zM7,17l10,-10"></path></g></g></svg>