<svg version="1.1" xmlns="http://www.w3.org/2000/svg" xmlns:xlink="http://www.w3.org/1999/xlink" width="800px" height="800px" viewBox="0,0,256,256"><g transform="translate(12.8,12.8) scale(0.9,0.9)"><g fill="#ffffff" fill-rule="nonzero" stroke="none" stroke-width="1" stroke-linecap="butt" stroke-linejoin="miter" stroke-miterlimit="10" stroke-dasharray="" stroke-dashoffset="0" font-family="none" font-weight="none" font-size="none" text-anchor="none" style="mix-blend-mode: normal"><path d="M-14.22222,270.22222v-284.44444h284.44444v284.44444z" id="bgRectangle"></path></g><g fill="none" fill-rule="nonzero" stroke="none" stroke-width="1" stroke-linecap="butt" stroke-linejoin="none" stroke-miterlimit="10" stroke-dasharray="" stroke-dashoffset="0" font-family="none" font-weight="none" font-size="none" text-anchor="none" style="mix-blend-mode: normal"><path transform="translate(1.38667,0.01067) scale(10.66667,10.66667)" d="M11.729,-0.002c0.03425,0 0.06767,0 0.102,0c1.016,0 2.013,0.085 2.879,0.234l0.014,0.001c1.534,0.165 2.744,1.414 2.848,2.975c0,0.00864 0,5.04446 0,5.451c0,0.01675 0,0.02564 0,0.026c0,1.586 -1.279,2.872 -2.863,2.885h-5.722c-1.952,0.034 -3.529,1.604 -3.574,3.557v2.616h-1.969c-1.63855,0 -2.6066,-1.1746 -3.02319,-2.83355c-0.27359,-0.94477 -0.41981,-1.9442 -0.41981,-2.97745c0,-1.036 0.147,-2.038 0.403,-2.91l0.004,-0.023c0.323,-1.642 1.77,-2.881 3.507,-2.881c0.023,0 0.046,0.001 0.066,0.001h7.874v-0.727h-5.726v-2.182c0,-1.652 0.439,-2.548 2.862,-2.976l-0.098,0.014c0.92,-0.162 1.867,-0.247 2.834,-0.248zM20.435,6.119c1.64676,0 2.4365,1.22178 2.85085,2.85359c0.29461,0.93275 0.45315,1.92637 0.45315,2.95741c0,1.039 -0.161,2.04 -0.441,2.91c-0.579,1.741 -1.199,2.902 -2.863,2.902h-8.582v0.727h5.719v2.184c0,1.652 -1.422,2.493 -2.862,2.91l0.068,-0.019c-0.922,0.296 -1.906,0.456 -2.927,0.456c-1.021,0 -2.005,-0.16 -2.86,-0.437c-1.513,-0.446 -2.862,-1.359 -2.862,-2.91v-5.453c0.006,-1.587 1.278,-2.876 2.862,-2.909h5.724c1.968,-0.052 3.55,-1.653 3.572,-3.63v-2.542z" id="strokeMainSVG" fill="#ebf9f8" stroke="#ebf9f8" stroke-linejoin="round"></path><g transform="translate(1.38667,0.01067) scale(10.66667,10.66667)" fill="#37c3bf" stroke="none" stroke-linejoin="miter"><path d="M11.727,0c-0.967,0.001 -1.914,0.086 -2.834,0.248l0.098,-0.014c-2.423,0.428 -2.862,1.324 -2.862,2.976v2.182h5.726v0.727h-7.874c-0.02,0 -0.043,-0.001 -0.066,-0.001c-1.737,0 -3.184,1.239 -3.507,2.881l-0.004,0.023c-0.256,0.872 -0.403,1.874 -0.403,2.91c0,1.036 0.147,2.038 0.422,2.985l-0.019,-0.076c0.407,1.695 1.379,2.902 3.04,2.902h1.969v-2.616c0.045,-1.953 1.622,-3.523 3.574,-3.557h0.003h5.719c1.584,-0.013 2.863,-1.299 2.863,-2.885c0,-0.009 0,-0.017 0,-0.026v0.001v-5.452c-0.104,-1.561 -1.314,-2.81 -2.848,-2.975l-0.014,-0.001c-0.866,-0.149 -1.863,-0.234 -2.879,-0.234c-0.036,0 -0.071,0 -0.107,0h0.005zM8.631,1.755h0.017c0.603,0 1.091,0.489 1.091,1.091c0,0.602 -0.489,1.091 -1.091,1.091c-0.601,0 -1.089,-0.487 -1.091,-1.088c0,-0.002 0,-0.005 0,-0.008c0,-0.596 0.48,-1.08 1.074,-1.086h0.001z"></path><path d="M18.287,6.119v2.542c-0.022,1.977 -1.604,3.578 -3.572,3.63h-0.005h-5.719c-1.584,0.033 -2.856,1.322 -2.862,2.909v5.453c0,1.551 1.349,2.464 2.862,2.91c0.855,0.277 1.839,0.437 2.86,0.437c1.021,0 2.005,-0.16 2.927,-0.456l-0.068,0.019c1.44,-0.417 2.862,-1.258 2.862,-2.91v-2.184h-5.719v-0.727h8.582c1.664,0 2.284,-1.161 2.863,-2.902c0.28,-0.87 0.441,-1.871 0.441,-2.91c0,-1.039 -0.161,-2.04 -0.46,-2.979l0.019,0.07c-0.411,-1.656 -1.2,-2.902 -2.863,-2.902zM15.071,19.926h0.017c0.603,0 1.091,0.489 1.091,1.091c0,0.602 -0.489,1.091 -1.091,1.091c-0.603,0 -1.091,-0.489 -1.091,-1.091c0,-0.001 0,-0.003 0,-0.004c0,-0.002 0,-0.005 0,-0.007c0,-0.595 0.48,-1.077 1.074,-1.08z"></path></g></g></g></svg>