<svg version="1.1" xmlns="http://www.w3.org/2000/svg" xmlns:xlink="http://www.w3.org/1999/xlink" width="800px" height="800px" viewBox="0,0,256,256"><g fill="none" fill-rule="nonzero" stroke="none" stroke-width="1" stroke-linecap="butt" stroke-linejoin="miter" stroke-miterlimit="10" stroke-dasharray="" stroke-dashoffset="0" font-family="none" font-weight="none" font-size="none" text-anchor="none" style="mix-blend-mode: normal"><g transform="scale(10.66667,10.66667)"><rect x="0" y="0" width="24" height="24" fill="none"></rect><path d="M12,10.11c1.03016,0.00006 1.86625,0.83325 1.86988,1.8634c0.00363,1.03015 -0.82656,1.86922 -1.85669,1.87655c-1.03013,0.00733 -1.87217,-0.81986 -1.88319,-1.84995c-0.00266,-0.49861 0.19287,-0.97785 0.54356,-1.3323c0.35069,-0.35445 0.82783,-0.55506 1.32644,-0.5577M7.37,20c0.63,0.38 2,-0.2 3.6,-1.7c-0.53477,-0.6077 -1.03873,-1.24183 -1.51,-1.9c-0.80658,-0.09033 -1.60773,-0.22386 -2.4,-0.4c-0.51,2.14 -0.32,3.61 0.31,4M8.08,14.26l-0.29,-0.51c-0.11305,0.28088 -0.20987,0.56802 -0.29,0.86c0.27,0.06 0.57,0.11 0.88,0.16l-0.3,-0.51M14.62,13.5l0.81,-1.5l-0.81,-1.5c-0.3,-0.53 -0.62,-1 -0.91,-1.47c-0.54,-0.03 -1.11,-0.03 -1.71,-0.03c-0.6,0 -1.17,0 -1.71,0c-0.29,0.47 -0.61,0.94 -0.91,1.47l-0.81,1.53l0.81,1.5c0.3,0.53 0.62,1 0.91,1.47c0.54,0 1.11,0 1.71,0c0.6,0 1.17,0 1.71,0c0.29,-0.47 0.61,-0.94 0.91,-1.47M12,6.78c-0.19,0.22 -0.39,0.45 -0.59,0.72h1.18c-0.2,-0.27 -0.4,-0.5 -0.59,-0.72M12,17.22c0.19,-0.22 0.39,-0.45 0.59,-0.72h-1.18c0.2,0.27 0.4,0.5 0.59,0.72M16.62,4c-0.62,-0.38 -2,0.2 -3.59,1.7c0.53477,0.6077 1.03873,1.24183 1.51,1.9c0.80585,0.07712 1.60699,0.19729 2.4,0.36c0.51,-2.14 0.32,-3.61 -0.32,-4M15.92,9.7l0.29,0.51c0.11305,-0.28088 0.20987,-0.56802 0.29,-0.86c-0.27,-0.06 -0.57,-0.11 -0.88,-0.16l0.3,0.51M17.37,2.7c1.47,0.84 1.63,3.05 1,5.63c2.54,0.75 4.37,2 4.37,3.68c0,1.68 -1.83,2.93 -4.37,3.68c0.62,2.58 0.46,4.79 -1,5.63c-1.46,0.84 -3.45,-0.12 -5.37,-1.95c-1.92,1.83 -3.91,2.79 -5.38,1.95c-1.47,-0.84 -1.62,-3 -1,-5.63c-2.54,-0.75 -4.37,-2 -4.37,-3.68c0,-1.68 1.83,-2.94 4.37,-3.69c-0.62,-2.58 -0.46,-4.79 1,-5.63c1.46,-0.84 3.46,0.12 5.38,1.95c1.92,-1.83 3.91,-2.79 5.37,-1.95M17.08,12c0.3473,0.73615 0.65442,1.49059 0.92,2.26c2.1,-0.63 3.28,-1.53 3.28,-2.26c0,-0.73 -1.21,-1.63 -3.28,-2.26c-0.26558,0.76941 -0.5727,1.52385 -0.92,2.26M6.92,12c-0.3473,-0.73615 -0.65442,-1.49059 -0.92,-2.26c-2.1,0.63 -3.28,1.53 -3.28,2.26c0,0.73 1.21,1.63 3.28,2.26c0.26558,-0.76941 0.5727,-1.52385 0.92,-2.26M15.92,14.26l-0.3,0.51c0.31,0 0.61,-0.1 0.88,-0.16c-0.08013,-0.29198 -0.17695,-0.57912 -0.29,-0.86l-0.29,0.51M13,18.3c1.59,1.5 3,2.08 3.59,1.7c0.59,-0.38 0.83,-1.82 0.32,-4c-0.79301,0.16271 -1.59415,0.28288 -2.4,0.36c-0.47017,0.67181 -0.97415,1.31931 -1.51,1.94M8.08,9.74l0.3,-0.51c-0.31,0 -0.61,0.1 -0.88,0.16c0.08013,0.29198 0.17695,0.57912 0.29,0.86l0.29,-0.51M11,5.7c-1.62,-1.5 -3,-2.08 -3.63,-1.7c-0.63,0.38 -0.82,1.82 -0.31,4c0.79301,-0.16271 1.59415,-0.28288 2.4,-0.36c0.47991,-0.67251 0.99391,-1.32002 1.54,-1.94z" fill="#37c3bf"></path></g></g></svg>