<svg version="1.1" xmlns="http://www.w3.org/2000/svg" xmlns:xlink="http://www.w3.org/1999/xlink" width="800px" height="800px" viewBox="0,0,256,256"><g fill="none" fill-rule="nonzero" stroke="none" stroke-width="none" stroke-linecap="butt" stroke-linejoin="miter" stroke-miterlimit="10" stroke-dasharray="" stroke-dashoffset="0" font-family="none" font-weight="none" font-size="none" text-anchor="none" style="mix-blend-mode: normal"><g><g fill="#ffffff" stroke="none" stroke-width="1"><path d="M0,256v-256h256v256z" id="bgRectangle"></path></g><g><g transform="translate(0,-8.00164) scale(8,8)"><path d="M7.674,14.488c-0.86622,-0.86607 -2.27051,-0.86599 -3.13663,0.00018c-0.86612,0.86617 -0.86612,2.27046 0,3.13663c0.86612,0.86617 2.27041,0.86625 3.13663,0.00018h16.652c0.86622,0.86607 2.27051,0.86599 3.13663,-0.00018c0.86612,-0.86617 0.86612,-2.27046 0,-3.13663c-0.86612,-0.86617 -2.27041,-0.86625 -3.13663,-0.00018z" fill="#ffb13b" stroke="#37c3bf" stroke-width="3.73"></path><path d="M11.222,9.06c0,-1.22445 -0.99222,-2.21726 -2.21667,-2.218c-1.22445,-0.00073 -2.21786,0.99089 -2.21933,2.21533c-0.00147,1.22445 0.98955,2.21845 2.214,2.22066l11.778,11.774c0,1.22445 0.99222,2.21726 2.21667,2.218c1.22445,0.00073 2.21786,-0.99089 2.21933,-2.21533c0.00147,-1.22445 -0.98955,-2.21845 -2.214,-2.22066z" fill="#ffb13b" stroke="#37c3bf" stroke-width="3.73"></path><path d="M17.568,7.73c0.86607,-0.86622 0.86599,-2.27051 -0.00018,-3.13663c-0.86617,-0.86612 -2.27046,-0.86612 -3.13663,0c-0.86617,0.86612 -0.86625,2.27041 -0.00018,3.13663v16.652c-0.86607,0.86622 -0.86599,2.27051 0.00018,3.13663c0.86617,0.86612 2.27046,0.86612 3.13663,0c0.86617,-0.86612 0.86625,-2.27041 0.00018,-3.13663z" fill="#ffb13b" stroke="#37c3bf" stroke-width="3.73"></path><path d="M23,11.278c1.22444,-0.00221 2.21547,-0.99622 2.214,-2.22066c-0.00147,-1.22445 -0.99488,-2.21607 -2.21933,-2.21533c-1.22445,0.00073 -2.21667,0.99355 -2.21667,2.218l-11.778,11.774c-1.22497,0 -2.218,0.99303 -2.218,2.218c0,1.22497 0.99303,2.218 2.218,2.218c1.22497,0 2.218,-0.99303 2.218,-2.218z" fill="#ffb13b" stroke="#37c3bf" stroke-width="3.73"></path><path d="M7.674,14.488c-0.86622,-0.86607 -2.27051,-0.86599 -3.13663,0.00018c-0.86612,0.86617 -0.86612,2.27046 0,3.13663c0.86612,0.86617 2.27041,0.86625 3.13663,0.00018h16.652c0.86622,0.86607 2.27051,0.86599 3.13663,-0.00018c0.86612,-0.86617 0.86612,-2.27046 0,-3.13663c-0.86612,-0.86617 -2.27041,-0.86625 -3.13663,-0.00018z" fill="#ffffff" stroke="none" stroke-width="1"></path><path d="M11.222,9.06c0,-1.22445 -0.99222,-2.21726 -2.21667,-2.218c-1.22445,-0.00073 -2.21786,0.99089 -2.21933,2.21533c-0.00147,1.22445 0.98955,2.21845 2.214,2.22066l11.778,11.774c0,1.22445 0.99222,2.21726 2.21667,2.218c1.22445,0.00073 2.21786,-0.99089 2.21933,-2.21533c0.00147,-1.22445 -0.98955,-2.21845 -2.214,-2.22066z" fill="#ffffff" stroke="none" stroke-width="1"></path><path d="M17.568,7.73c0.86607,-0.86622 0.86599,-2.27051 -0.00018,-3.13663c-0.86617,-0.86612 -2.27046,-0.86612 -3.13663,0c-0.86617,0.86612 -0.86625,2.27041 -0.00018,3.13663v16.652c-0.86607,0.86622 -0.86599,2.27051 0.00018,3.13663c0.86617,0.86612 2.27046,0.86612 3.13663,0c0.86617,-0.86612 0.86625,-2.27041 0.00018,-3.13663z" fill="#ffffff" stroke="none" stroke-width="1"></path><path d="M23,11.278c1.22444,-0.00221 2.21547,-0.99622 2.214,-2.22066c-0.00147,-1.22445 -0.99488,-2.21607 -2.21933,-2.21533c-1.22445,0.00073 -2.21667,0.99355 -2.21667,2.218l-11.778,11.774c-1.22497,0 -2.218,0.99303 -2.218,2.218c0,1.22497 0.99303,2.218 2.218,2.218c1.22497,0 2.218,-0.99303 2.218,-2.218z" fill="#ffffff" stroke="none" stroke-width="1"></path><path d="M2,16.056h28v9.894c0.01944,1.09482 -0.40691,2.15053 -1.18119,2.92481c-0.77428,0.77428 -1.82999,1.20063 -2.92481,1.18119h-19.788c-1.09482,0.01944 -2.15053,-0.40691 -2.92481,-1.18119c-0.77428,-0.77428 -1.20063,-1.82999 -1.18119,-2.92481z" fill="#37c3bf" stroke="none" stroke-width="1"></path><path d="M6.2,23.045c-1.15674,-1.16273 -1.38954,-2.95691 -0.56785,-4.37635c0.82169,-1.41944 2.49349,-2.11108 4.07784,-1.68704c1.58435,0.42404 2.68718,1.85828 2.69001,3.49839h-2.13c-0.00441,-0.67603 -0.46051,-1.26557 -1.11376,-1.43963c-0.65325,-0.17406 -1.34222,0.11037 -1.68243,0.69458c-0.34021,0.5842 -0.24758,1.3238 0.22619,1.80606v0c0.28712,0.27353 0.66558,0.43069 1.062,0.441v0c0.95262,0.04649 1.85957,0.42221 2.566,1.063v0c1.16073,1.16129 1.39684,2.95738 0.57569,4.3792c-0.82116,1.42183 -2.49486,2.11493 -4.08081,1.68991c-1.58595,-0.42502 -2.68877,-1.86219 -2.68887,-3.50411h2.13c0.00213,0.67738 0.45798,1.26928 1.11236,1.44433c0.65438,0.17505 1.34487,-0.11019 1.68493,-0.69603c0.34005,-0.58584 0.24527,-1.3269 -0.23129,-1.8083v0c-0.30196,-0.25034 -0.67245,-0.4037 -1.063,-0.44v0c-0.94717,-0.07288 -1.84642,-0.44596 -2.567,-1.065z" fill="#ffffff" stroke="none" stroke-width="1"></path><path d="M19.651,16.852l-2.566,12.388h-2.125l-2.56,-12.388h2.12l1.5,7.255l1.5,-7.255z" fill="#ffffff" stroke="none" stroke-width="1"></path><path d="M23.28,21.983h3.628v3.628v0c0,2.00397 -1.62453,3.6285 -3.6285,3.6285c-2.00397,0 -3.6285,-1.62453 -3.6285,-3.6285v0v-5.131v0c0,-2.00397 1.62453,-3.6285 3.6285,-3.6285c2.00397,0 3.6285,1.62453 3.6285,3.6285h-2.125c0,-0.82981 -0.67269,-1.5025 -1.5025,-1.5025c-0.82981,0 -1.5025,0.67269 -1.5025,1.5025v5.13v0c0,0.82981 0.67269,1.5025 1.5025,1.5025c0.82981,0 1.5025,-0.67269 1.5025,-1.5025v0v-1.5h-1.5v-2.127z" fill="#ffffff" stroke="none" stroke-width="1"></path></g></g></g></g></svg>