<svg version="1.1" xmlns="http://www.w3.org/2000/svg" xmlns:xlink="http://www.w3.org/1999/xlink" width="800px" height="800px" viewBox="0,0,256,256"><g transform="translate(12.8,12.8) scale(0.9,0.9)"><g fill="#ffffff" fill-rule="nonzero" stroke="none" stroke-width="1" stroke-linecap="butt" stroke-linejoin="miter" stroke-miterlimit="10" stroke-dasharray="" stroke-dashoffset="0" font-family="none" font-weight="none" font-size="none" text-anchor="none" style="mix-blend-mode: normal"><path d="M-14.22222,270.22222v-284.44444h284.44444v284.44444z" id="bgRectangle"></path></g><g fill="none" fill-rule="nonzero" stroke="none" stroke-width="1" stroke-linecap="butt" stroke-linejoin="none" stroke-miterlimit="10" stroke-dasharray="" stroke-dashoffset="0" font-family="none" font-weight="none" font-size="none" text-anchor="none" style="mix-blend-mode: normal"><path transform="scale(18.28571,18.28571)" d="M1.69275,12.9793c-0.1508,-0.051 -0.3049,-0.1433 -0.39,-0.2325c-0.085,-0.089 -0.1532,-0.2209 -0.1828,-0.3536c-0.011,-0.049 -0.011,-0.088 -0.012,-0.8636l-0.0001,-0.8126h0.5047l0.0001,0.7584c0.0001,0.8342 0,0.7987 0.037,0.8706c0.037,0.069 0.111,0.1211 0.1959,0.1382c0.1048,0.021 0.2355,-0.047 0.2813,-0.1473c0.033,-0.072 0.032,-0.053 0.032,-0.8675l0.0001,-0.7524h0.5092l0.3717,0.6309l0.3718,0.6308v-0.5528h0.5286v1.5741h-0.5153l-0.3748,-0.6135l-0.3746,-0.6135v0.3116c0,0.3559 0,0.3522 -0.059,0.4678c-0.09,0.1849 -0.2854,0.3473 -0.5117,0.4247l-0.056,0.019h-0.2944l-0.061,-0.021zM5.04085,12.9363c-0.2434,-0.038 -0.4585,-0.1495 -0.6315,-0.3276c-0.1594,-0.1645 -0.259,-0.3591 -0.2975,-0.5821c-0.084,-0.4869 0.1612,-0.9686 0.6044,-1.1867c0.3107,-0.1528 0.6612,-0.1541 0.974,0c0.2262,0.109 0.4035,0.2852 0.5176,0.5142c0.025,0.051 0.063,0.1495 0.07,0.1818v0.019h-0.4725l-0.018,-0.034c-0.045,-0.086 -0.1288,-0.1763 -0.2174,-0.2341c-0.1239,-0.081 -0.2536,-0.1156 -0.4031,-0.1082c-0.1689,0.01 -0.3232,0.079 -0.441,0.2016c-0.1243,0.1293 -0.1852,0.2798 -0.1852,0.4573c0,0.1899 0.069,0.3527 0.2033,0.4822c0.1019,0.098 0.2066,0.1517 0.3495,0.1791c0.048,0.01 0.1759,0.01 0.2288,0c0.1989,-0.039 0.3693,-0.1616 0.4651,-0.3361l0.022,-0.04h0.2337c0.1881,0 0.2337,0 0.2337,0.01c0,0.019 -0.045,0.139 -0.075,0.2003c-0.161,0.3289 -0.4765,0.5589 -0.8391,0.6117c-0.079,0.012 -0.2515,0.011 -0.3265,-0.0003zM7.35375,12.9463c-0.2673,-0.039 -0.4807,-0.1442 -0.6601,-0.3244c-0.4915,-0.4937 -0.4079,-1.316 0.1734,-1.7057c0.3234,-0.2166 0.7406,-0.2475 1.0904,-0.08c0.4408,0.2104 0.6904,0.6682 0.6278,1.1511c-0.055,0.4257 -0.3594,0.7872 -0.7694,0.9147c-0.1152,0.036 -0.1672,0.043 -0.3119,0.045c-0.073,0 -0.1403,0.0008 -0.1502,-0.0007zM11.67955,12.9463c-0.1326,-0.019 -0.2566,-0.056 -0.3589,-0.1074c-0.6082,-0.3033 -0.8097,-1.0584 -0.432,-1.6197c0.1611,-0.2392 0.4079,-0.406 0.689,-0.4655c0.3449,-0.073 0.6879,0.016 0.9623,0.2512c0.1371,0.1172 0.2592,0.3018 0.3192,0.4822c0.022,0.067 0.048,0.1748 0.042,0.1797c0,0 -0.097,0.039 -0.2127,0.084c-0.1157,0.045 -0.2252,0.088 -0.2433,0.096c-0.018,0.01 -0.2778,0.1073 -0.5768,0.2203c-0.299,0.1128 -0.5473,0.2071 -0.5516,0.2095c-0.01,0 0.01,0.018 0.039,0.049c0.093,0.089 0.199,0.1437 0.3292,0.1705c0.063,0.013 0.182,0.013 0.2488,0c0.2166,-0.042 0.4049,-0.1972 0.4876,-0.4024l0.017,-0.042h0.4622l-0.01,0.041c-0.082,0.3704 -0.3702,0.6871 -0.7342,0.8067c-0.1215,0.04 -0.1838,0.05 -0.331,0.051c-0.071,0.0009 -0.1374,0.0004 -0.1473,0zM8.73255,10.7263h0.4342c0.4103,0 0.4376,0 0.5001,0.015c0.1764,0.034 0.3195,0.093 0.4596,0.192c0.073,0.051 0.2067,0.185 0.2599,0.2598c0.052,0.073 0.1224,0.2129 0.1503,0.2985c0.1179,0.3625 0.042,0.7627 -0.2003,1.051c-0.1873,0.2232 -0.4592,0.3649 -0.7536,0.3926c-0.038,0 -0.2339,0.01 -0.4581,0.01h-0.3921zM3.41545,10.7211h0.5287v0.5527h-0.5287zM1.03025,5.5632v-4.5632h0.3004v3.2301c0,3.5786 0,3.2528 0.039,3.4548c0.088,0.4125 0.27,0.8253 0.5059,1.1487c0.1853,0.254 0.4189,0.4777 0.7011,0.6713c0.3804,0.2611 0.8033,0.457 1.3251,0.6138c0.015,0 -0.4035,0.01 -1.4255,0.01l-1.4464,0.0006v-4.563zM5.03055,10.1111c0.5032,-0.1066 1.0421,-0.3735 1.4851,-0.7352c0.5723,-0.4676 0.9292,-1.017 1.048,-1.6139c0.031,-0.1569 0.03,-0.091 0.033,-1.368v-1.188l1.5006,2.4565c0.8253,1.3511 1.5005,2.4581 1.5005,2.4601c0,0 -1.2688,0 -2.8193,0l-2.8194,-0.0003l0.068,-0.014zM12.66045,6.9795v-3.1467h-2.1089v2.2072l-1.4629,-2.4819c-0.8047,-1.365 -1.4731,-2.499 -1.4853,-2.52l-0.022,-0.038h2.9735v2.205h2.1149v-2.205h0.3004v9.1262h-0.3004v-3.1467zM4.30765,8.0654c-0.2748,-0.05 -0.5144,-0.177 -0.6719,-0.3572c-0.1513,-0.173 -0.2381,-0.3775 -0.2783,-0.6551c-0.01,-0.068 -0.011,-0.2588 -0.012,-3.0626v-2.9905h2.1873v6.0231l-0.013,0.077c-0.057,0.3396 -0.1908,0.581 -0.4164,0.752c-0.2241,0.1699 -0.5476,0.2574 -0.7896,0.2137z" id="strokeMainSVG" fill="#ebf9f8" stroke="#ebf9f8" stroke-linejoin="round"></path><g transform="scale(18.28571,18.28571)" fill="#37c3bf" stroke="none" stroke-linejoin="miter"><path d="M1.69275,12.9793c-0.1508,-0.051 -0.3049,-0.1433 -0.39,-0.2325c-0.085,-0.089 -0.1532,-0.2209 -0.1828,-0.3536c-0.011,-0.049 -0.011,-0.088 -0.012,-0.8636l-0.0001,-0.8126h0.2523h0.2524l0.0001,0.7584c0.0001,0.8342 0,0.7987 0.037,0.8706c0.037,0.069 0.111,0.1211 0.1959,0.1382c0.1048,0.021 0.2355,-0.047 0.2813,-0.1473c0.033,-0.072 0.032,-0.053 0.032,-0.8675l0.0001,-0.7524h0.2546h0.2546l0.3717,0.6309l0.3718,0.6308v-0.2764v-0.2764h0.2643h0.2643v0.7871v0.787h-0.2576h-0.2577l-0.3748,-0.6135l-0.3746,-0.6135v0.3116c0,0.3559 0,0.3522 -0.059,0.4678c-0.09,0.1849 -0.2854,0.3473 -0.5117,0.4247l-0.056,0.019h-0.1473h-0.1471l-0.061,-0.021zM5.04085,12.9363c-0.2434,-0.038 -0.4585,-0.1495 -0.6315,-0.3276c-0.1594,-0.1645 -0.259,-0.3591 -0.2975,-0.5821c-0.084,-0.4869 0.1612,-0.9686 0.6044,-1.1867c0.3107,-0.1528 0.6612,-0.1541 0.974,0c0.2262,0.109 0.4035,0.2852 0.5176,0.5142c0.025,0.051 0.063,0.1495 0.07,0.1818v0.019h-0.2363h-0.2362l-0.018,-0.034c-0.045,-0.086 -0.1288,-0.1763 -0.2174,-0.2341c-0.1239,-0.081 -0.2536,-0.1156 -0.4031,-0.1082c-0.1689,0.01 -0.3232,0.079 -0.441,0.2016c-0.1243,0.1293 -0.1852,0.2798 -0.1852,0.4573c0,0.1899 0.069,0.3527 0.2033,0.4822c0.1019,0.098 0.2066,0.1517 0.3495,0.1791c0.048,0.01 0.1759,0.01 0.2288,0c0.1989,-0.039 0.3693,-0.1616 0.4651,-0.3361l0.022,-0.04h0.2337c0.1881,0 0.2337,0 0.2337,0.01c0,0.019 -0.045,0.139 -0.075,0.2003c-0.161,0.3289 -0.4765,0.5589 -0.8391,0.6117c-0.079,0.012 -0.2515,0.011 -0.3265,-0.0003zM7.35375,12.9463c-0.2673,-0.039 -0.4807,-0.1442 -0.6601,-0.3244c-0.4915,-0.4937 -0.4079,-1.316 0.1734,-1.7057c0.3234,-0.2166 0.7406,-0.2475 1.0904,-0.08c0.4408,0.2104 0.6904,0.6682 0.6278,1.1511c-0.055,0.4257 -0.3594,0.7872 -0.7694,0.9147c-0.1152,0.036 -0.1672,0.043 -0.3119,0.045c-0.073,0 -0.1403,0.0008 -0.1502,-0.0007zM7.61805,12.4937c0.3284,-0.066 0.5619,-0.3848 0.526,-0.7189c-0.031,-0.2841 -0.2241,-0.5064 -0.5043,-0.5799c-0.066,-0.017 -0.1911,-0.022 -0.265,-0.01c-0.266,0.046 -0.4684,0.2318 -0.5392,0.4952c-0.014,0.051 -0.016,0.07 -0.016,0.1573c-0.0002,0.082 0,0.1079 0.013,0.152c0.044,0.1742 0.1438,0.3155 0.2917,0.4114c0.1442,0.093 0.3209,0.1262 0.4936,0.092zM11.67955,12.9463c-0.1326,-0.019 -0.2566,-0.056 -0.3589,-0.1074c-0.6082,-0.3033 -0.8097,-1.0584 -0.432,-1.6197c0.1611,-0.2392 0.4079,-0.406 0.689,-0.4655c0.3449,-0.073 0.6879,0.016 0.9623,0.2512c0.1371,0.1172 0.2592,0.3018 0.3192,0.4822c0.022,0.067 0.048,0.1748 0.042,0.1797c0,0 -0.097,0.039 -0.2127,0.084c-0.1157,0.045 -0.2252,0.088 -0.2433,0.096c-0.018,0.01 -0.2778,0.1073 -0.5768,0.2203c-0.299,0.1128 -0.5473,0.2071 -0.5516,0.2095c-0.01,0 0.01,0.018 0.039,0.049c0.093,0.089 0.199,0.1437 0.3292,0.1705c0.063,0.013 0.182,0.013 0.2488,0c0.2166,-0.042 0.4049,-0.1972 0.4876,-0.4024l0.017,-0.042h0.2311h0.2311l-0.01,0.041c-0.082,0.3704 -0.3702,0.6871 -0.7342,0.8067c-0.1215,0.04 -0.1838,0.05 -0.331,0.051c-0.071,0.0009 -0.1374,0.0004 -0.1473,0zM11.71555,11.5724c0.2875,-0.1075 0.5304,-0.1983 0.5397,-0.2019l0.017,-0.01l-0.032,-0.027c-0.1298,-0.1111 -0.2834,-0.164 -0.4556,-0.157c-0.1593,0.01 -0.2899,0.057 -0.4098,0.1577c-0.1172,0.099 -0.2096,0.268 -0.225,0.4127v0.035l0.023,-0.01c0.013,0 0.2586,-0.096 0.546,-0.2037zM8.73255,11.8352v-1.1089h0.4342c0.4103,0 0.4376,0 0.5001,0.015c0.1764,0.034 0.3195,0.093 0.4596,0.192c0.073,0.051 0.2067,0.185 0.2599,0.2598c0.052,0.073 0.1224,0.2129 0.1503,0.2985c0.1179,0.3625 0.042,0.7627 -0.2003,1.051c-0.1873,0.2232 -0.4592,0.3649 -0.7536,0.3926c-0.038,0 -0.2339,0.01 -0.4581,0.01h-0.3921v-1.1089zM9.60355,12.4967c0.2579,-0.053 0.4526,-0.2379 0.5213,-0.4949c0.014,-0.052 0.016,-0.069 0.016,-0.1602c0,-0.091 0,-0.1087 -0.015,-0.1597c-0.053,-0.1991 -0.1763,-0.3509 -0.3553,-0.4383c-0.034,-0.016 -0.088,-0.037 -0.121,-0.046c-0.058,-0.015 -0.067,-0.016 -0.2477,-0.018h-0.1878v0.6683v0.6682h0.1728c0.119,0 0.1866,-0.01 0.2175,-0.013zM3.41545,10.9975v-0.2764h0.2644h0.2643v0.2764v0.2763h-0.2643h-0.2644zM1.03025,5.5632v-4.5632h0.1502h0.1502v3.2301c0,3.5786 0,3.2528 0.039,3.4548c0.088,0.4125 0.27,0.8253 0.5059,1.1487c0.1853,0.254 0.4189,0.4777 0.7011,0.6713c0.3804,0.2611 0.8033,0.457 1.3251,0.6138c0.015,0 -0.4035,0.01 -1.4255,0.01l-1.4464,0.0006v-4.563zM5.03055,10.1111c0.5032,-0.1066 1.0421,-0.3735 1.4851,-0.7352c0.5723,-0.4676 0.9292,-1.017 1.048,-1.6139c0.031,-0.1569 0.03,-0.091 0.033,-1.368v-1.188l1.5006,2.4565c0.8253,1.3511 1.5005,2.4581 1.5005,2.4601c0,0 -1.2688,0 -2.8193,0l-2.8194,-0.0003l0.068,-0.014zM12.66045,6.9795v-3.1467h-1.0545h-1.0544v1.1036v1.1036l-1.4629,-2.4819c-0.8047,-1.365 -1.4731,-2.499 -1.4853,-2.52l-0.022,-0.038h1.4867h1.4868v1.1025v1.1025h1.0574h1.0575v-1.1025v-1.1025h0.1501h0.1503v4.5632v4.563h-0.1503h-0.1501v-3.1467zM4.30765,8.0654c-0.2748,-0.05 -0.5144,-0.177 -0.6719,-0.3572c-0.1513,-0.173 -0.2381,-0.3775 -0.2783,-0.6551c-0.01,-0.068 -0.011,-0.2588 -0.012,-3.0626v-2.9905h1.0937h1.0936v3.0115v3.0116l-0.013,0.077c-0.057,0.3396 -0.1908,0.581 -0.4164,0.752c-0.2241,0.1699 -0.5476,0.2574 -0.7896,0.2137z"></path></g></g></g></svg>