<svg version="1.1" xmlns="http://www.w3.org/2000/svg" xmlns:xlink="http://www.w3.org/1999/xlink" width="800px" height="800px" viewBox="0,0,256,256"><g fill="#37c3bf" fill-rule="nonzero" stroke="none" stroke-width="1" stroke-linecap="butt" stroke-linejoin="miter" stroke-miterlimit="10" stroke-dasharray="" stroke-dashoffset="0" font-family="none" font-weight="none" font-size="none" text-anchor="none" style="mix-blend-mode: normal"><g transform="translate(13.47368,0) scale(13.47368,13.47368)"><path d="M16.5,9.5c0,4.41828 -3.58172,8 -8,8c-4.41828,0 -8,-3.58172 -8,-8c0,-4.41828 3.58172,-8 8,-8c4.41828,0 8,3.58172 8,8zM6.668,9.756l-3.835,-2.828v5.286zM3.824,6.665l3.743,2.76c0.56005,0.36643 1.28395,0.36643 1.844,0l3.743,-2.76zM12.854,12.339l-3.26,-2.091c-0.69823,0.33654 -1.51177,0.33654 -2.21,0l-3.263,2.091zM14.145,6.929l-3.835,2.827l3.835,2.46z"></path></g></g></svg>