<svg version="1.1" xmlns="http://www.w3.org/2000/svg" xmlns:xlink="http://www.w3.org/1999/xlink" width="800px" height="800px" viewBox="0,0,256,256"><g fill="none" fill-rule="nonzero" stroke="#37c3bf" stroke-width="1.5" stroke-linecap="round" stroke-linejoin="round" stroke-miterlimit="10" stroke-dasharray="" stroke-dashoffset="0" font-family="none" font-weight="none" font-size="none" text-anchor="none" style="mix-blend-mode: normal"><g transform="translate(2.66667,-0.14292) scale(10.66667,10.66667)"><path d="M16,22.0268v-2.87c0.0375,-0.4768 -0.0269,-0.9562 -0.189,-1.4062c-0.1621,-0.45 -0.4181,-0.8604 -0.751,-1.2038c3.14,-0.35 6.44,-1.54 6.44,-7.00001c-0.0003,-1.39617 -0.5373,-2.7388 -1.5,-3.75c0.4558,-1.22149 0.4236,-2.57165 -0.09,-3.77c0,0 -1.18,-0.35 -3.91,1.48c-2.292,-0.62118 -4.708,-0.62118 -7.00001,0c-2.73,-1.83 -3.91,-1.48 -3.91,-1.48c-0.51363,1.19835 -0.54586,2.54851 -0.09,3.77c-0.96988,1.0187 -1.50748,2.37347 -1.5,3.78c0,5.42001 3.29999,6.61001 6.43999,7.00001c-0.329,0.34 -0.58273,0.7454 -0.74469,1.1899c-0.16195,0.4445 -0.2285,0.9182 -0.1953,1.3901v2.87"></path><path d="M9,20.0267c-3,0.9732 -5.5,0 -7,-3"></path></g></g></svg>