<svg version="1.1" xmlns="http://www.w3.org/2000/svg" xmlns:xlink="http://www.w3.org/1999/xlink" width="800px" height="800px" viewBox="0,0,256,256"><g fill="#37c3bf" fill-rule="nonzero" stroke="none" stroke-width="1" stroke-linecap="butt" stroke-linejoin="miter" stroke-miterlimit="10" stroke-dasharray="" stroke-dashoffset="0" font-family="none" font-weight="none" font-size="none" text-anchor="none" style="mix-blend-mode: normal"><g transform="translate(0.00039,0.0005) scale(0.5,0.5)"><g><g><path d="M450.619,252.577c-1.474,-2.98 -4.511,-4.866 -7.836,-4.866h-215.38c-1.734,0.002 -3.429,0.517 -4.869,1.483l-57.234,38.372c-2.421,1.624 -3.873,4.347 -3.873,7.261c0,2.914 1.452,5.638 3.873,7.261l57.234,38.372c1.44,0.965 3.134,1.482 4.869,1.482h215.379c3.326,0 6.362,-1.886 7.836,-4.866c13.087,-26.458 13.087,-58.045 0.001,-84.499zM196.99,302.283l-11.122,-7.458l11.122,-7.456c0.669,2.408 1.028,4.908 1.028,7.455c0,2.549 -0.359,5.051 -1.028,7.459zM222.976,319.706l-11.011,-7.383c2.311,-5.503 3.538,-11.424 3.538,-17.498c0,-6.07 -1.226,-11.991 -3.536,-17.495l11.012,-7.383c4.766,16.21 4.766,33.549 -0.003,49.759zM392.998,324.456h-153.174c1.996,-6.834 3.284,-13.837 3.866,-20.888h154.653c-0.797,7.137 -2.588,14.174 -5.345,20.888zM243.69,286.084c-0.583,-7.052 -1.871,-14.053 -3.865,-20.888h153.173c2.755,6.714 4.548,13.751 5.345,20.888zM437.145,324.456h-25.519c6.236,-19.191 6.236,-40.069 0,-59.26h25.519c7.752,18.889 7.752,40.371 0,59.26z"></path></g></g><g><g><path d="M503.258,151.708h-125.616v-31.533c0,-25.43 -20.688,-46.119 -46.119,-46.119h-112.57c-25.43,0 -46.119,20.69 -46.119,46.119v28.8l-36.341,-62.944c-2.413,-4.181 -7.763,-5.614 -11.942,-3.2l-120.18,69.385c-2.008,1.16 -3.472,3.069 -4.073,5.308c-0.601,2.239 -0.287,4.626 0.873,6.633l52.79,91.434v173.609c0,4.828 3.913,8.742 8.742,8.742h440.554c4.829,0 8.742,-3.914 8.742,-8.742v-268.75c0.001,-4.828 -3.913,-8.742 -8.741,-8.742zM360.158,120.176v31.533h-14.427v-34.487c0,-9.312 -2.974,-17.938 -8.008,-24.996c12.818,2.84 22.435,14.29 22.435,27.95zM222.229,120.175c0,-15.789 12.846,-28.634 28.634,-28.634h51.703c14.16,0 25.681,11.52 25.681,25.681v34.487h-106.018zM190.317,120.176c0,-14.266 10.488,-26.126 24.157,-28.282c-6.089,7.817 -9.729,17.63 -9.729,28.282v31.533h-14.428zM81.943,420.459h-10.497v-134.585l10.497,18.181zM86.377,152.843c-2.741,1.551 -4.435,4.457 -4.435,7.607v108.638l-61.26,-106.102l105.039,-60.643l28.5,49.365l-63.291,0.003c-1.568,-0.038 -3.141,0.334 -4.553,1.132zM109.925,420.459h-10.498v-251.263h10.497v251.263zM127.408,420.459v-32.571c16.28,3.442 29.129,16.289 32.57,32.571zM494.516,420.459h-32.569c3.442,-16.281 16.289,-29.129 32.569,-32.571zM494.516,370.135c-25.941,3.823 -46.501,24.383 -50.323,50.324h-266.461c-3.823,-25.941 -24.383,-46.502 -50.323,-50.324v-200.943h367.107z"></path></g></g></g></g></svg>