<svg version="1.1" xmlns="http://www.w3.org/2000/svg" xmlns:xlink="http://www.w3.org/1999/xlink" width="800px" height="800px" viewBox="0,0,256,256"><g fill="#37c3bf" fill-rule="nonzero" stroke="none" stroke-width="1" stroke-linecap="butt" stroke-linejoin="miter" stroke-miterlimit="10" stroke-dasharray="" stroke-dashoffset="0" font-family="none" font-weight="none" font-size="none" text-anchor="none" style="mix-blend-mode: normal"><g transform="translate(-0.00012,16.38717) scale(3.65709,3.65709)"><path transform="translate(24.689,-712.062)" d="M24.56581,772.93967c-4.2532,-0.6287 -7.7642,-2.4255 -10.7178,-5.4849c-2.512,-2.6019 -4.0583,-5.5193 -4.8051,-9.0656c-0.4346,-2.064 -0.4346,-5.2086 0,-7.2726c0.7468,-3.5463 2.2931,-6.4637 4.8051,-9.0657c7.2819,-7.5426 19.0575,-7.5426 26.3393,0c2.6446,2.7393 4.3468,6.1039 4.9612,9.8064c0.2178,1.3128 0.2178,4.4783 0,5.7912c-1.102,6.6407 -5.9551,12.3867 -12.2175,14.465c-2.733,0.9071 -5.7814,1.2081 -8.3652,0.8262zM28.08221,770.98717c1.3571,-0.6923 2.6871,-2.6432 3.6165,-5.3048c0.2986,-0.8551 0.5829,-1.7223 0.6318,-1.9271l0.089,-0.3724l-1.9077,-0.1687c-1.0492,-0.093 -2.6438,-0.1686 -3.5436,-0.1684c-1.7491,0 -5.0798,0.2634 -5.2387,0.414c-0.1478,0.14 0.7853,2.8399 1.4631,4.2334c0.3642,0.7487 0.9294,1.6031 1.4172,2.1421c1.2412,1.3716 2.3323,1.7336 3.4724,1.1519zM22.76301,770.62427c0,-0.036 -0.1685,-0.312 -0.3745,-0.613c-0.8991,-1.314 -2.5101,-5.1713 -2.5101,-6.0101c0,-0.1287 -0.081,-0.2339 -0.1803,-0.2337c-0.3413,0 -2.7787,0.6988 -4.0519,1.1605l-1.2755,0.4627l0.915,0.9295c1.7319,1.7596 4.0137,3.2124 6.3024,4.013c1.0198,0.3568 1.1749,0.3952 1.1749,0.2911zM33.29161,770.00017c2.1587,-0.9039 3.8228,-2.027 5.4601,-3.6851l0.917,-0.9285l-1.1635,-0.4487c-1.0779,-0.4157 -3.7536,-1.1665 -4.168,-1.1695c-0.099,0 -0.1803,0.1041 -0.1803,0.2328c0,0.8479 -1.738,4.9994 -2.5396,6.0662c-0.1897,0.2525 -0.3449,0.4972 -0.3449,0.5436c0,0.1471 0.753,-0.081 2.0192,-0.6108zM13.93481,763.64127c0.7409,-0.3737 2.5931,-0.9982 4.1408,-1.396c0.7139,-0.1835 1.2861,-0.3901 1.2715,-0.4591c-0.1389,-0.6561 -0.478,-4.2298 -0.4781,-5.0384c-0.0001,-0.5686 -0.04,-1.1365 -0.088,-1.262c-0.077,-0.2006 -0.5813,-0.2281 -4.1798,-0.2281h-4.0923l0.081,0.6851c0.3501,2.9699 1.2656,5.7988 2.4732,7.6418c0.2575,0.3931 0.211,0.3901 0.8717,0.057zM41.72681,762.17537c0.7719,-1.5255 1.3031,-3.2391 1.5862,-5.1174c0.1193,-0.7918 0.2174,-1.5209 0.2179,-1.62c0,-0.14 -0.9147,-0.1803 -4.0982,-0.1803h-4.099l-0.076,0.9014c-0.042,0.4958 -0.1564,1.7452 -0.2542,2.7764c-0.098,1.0312 -0.1821,2.1257 -0.1874,2.4321l-0.01,0.5571l1.7593,0.4821c0.9676,0.2652 2.2981,0.7075 2.9567,0.9829c1.403,0.5868 1.2511,0.6705 2.2048,-1.2143zM23.75181,761.31647c2.0834,-0.203 4.7952,-0.1786 7.0849,0.064c1.0693,0.1131 1.9637,0.186 1.9877,0.1621c0.087,-0.087 0.444,-3.2182 0.5405,-4.734l0.099,-1.5504h-6.438h-6.438l0.082,1.1177c0.1891,2.5899 0.2316,3.0467 0.3836,4.1202l0.1597,1.1274l0.5228,-0.081c0.2876,-0.044 1.195,-0.1459 2.0165,-0.226zM18.90901,751.68807c0.046,-0.8528 0.1907,-2.2212 0.3219,-3.041c0.1313,-0.8197 0.2092,-1.5199 0.1732,-1.5558c-0.036,-0.036 -0.6632,-0.2254 -1.3939,-0.4209c-0.7307,-0.1956 -1.9921,-0.615 -2.8031,-0.9321c-0.811,-0.3171 -1.5104,-0.5765 -1.5542,-0.5765c-0.1428,0 -1.0943,1.5218 -1.6809,2.6883c-0.6723,1.3372 -1.2779,3.2168 -1.4458,4.487l-0.119,0.9014h4.2092h4.2092l0.083,-1.5504zM33.35971,752.12067c-0.1054,-1.3361 -0.4891,-4.1645 -0.6064,-4.4703c-0.068,-0.1759 -0.2511,-0.1993 -0.9625,-0.1223c-3.5957,0.389 -5.945,0.3888 -9.553,0c-0.7886,-0.085 -0.8946,-0.066 -0.9674,0.1756c-0.1342,0.446 -0.506,3.3669 -0.5714,4.49l-0.061,1.0456h6.4048h6.4049l-0.088,-1.1177zM43.36481,752.28047c-0.1536,-1.2762 -0.6021,-2.8742 -1.1389,-4.058c-0.4518,-0.9965 -1.6816,-3.0607 -1.8235,-3.0607c-0.044,0 -0.6722,0.2379 -1.396,0.5288c-0.7237,0.2908 -1.9898,0.7105 -2.8135,0.9327c-0.8237,0.2221 -1.527,0.4332 -1.5628,0.4691c-0.036,0.036 0.036,0.6708 0.1605,1.411c0.1242,0.7402 0.2629,1.8974 0.3083,2.5717c0.045,0.6743 0.1146,1.4369 0.1537,1.6947l0.071,0.4687h4.0782h4.0781l-0.1153,-0.958zM30.90651,745.72297c0.711,-0.078 1.3104,-0.1597 1.3321,-0.1813c0.072,-0.072 -0.7017,-2.314 -1.1019,-3.1924c-1.1222,-2.4632 -2.7435,-4.1104 -4.0458,-4.1104c-1.4587,0 -3.046,1.5905 -4.1912,4.1997c-0.3709,0.8449 -1.1463,2.939 -1.1463,3.0955c0,0.077 1.6308,0.2551 3.173,0.3463c1.8695,0.1105 4.0658,0.053 5.9801,-0.1574zM20.36821,743.86137c0.4554,-1.461 1.3036,-3.2953 1.9749,-4.271c0.2462,-0.3579 0.4199,-0.6784 0.386,-0.7123c-0.1078,-0.1078 -2.0173,0.5978 -3.1391,1.16c-0.595,0.2981 -1.5036,0.8397 -2.0192,1.2034c-0.9775,0.6895 -2.5961,2.1517 -2.5961,2.3452c0,0.247 3.8812,1.5422 4.6935,1.5663c0.2469,0.01 0.3603,-0.2018 0.7,-1.2916zM35.95601,744.79017c1.5168,-0.4398 3.1047,-1.0577 3.1047,-1.2083c0,-0.1894 -1.6302,-1.659 -2.5961,-2.3404c-0.5156,-0.3637 -1.4243,-0.9053 -2.0192,-1.2034c-1.125,-0.5637 -3.0315,-1.2677 -3.1398,-1.1594c-0.034,0.034 0.1042,0.2807 0.3078,0.5476c0.5523,0.7242 1.7573,3.3455 2.1227,4.6177c0.3775,1.3142 0.3233,1.296 2.2199,0.7462zM-24.65219,736.76047l0.036,-24.6989h29.1339h29.1339l0.037,11.7906c0.02,6.4848 0,11.7906 -0.038,11.7906c-0.041,0 -0.4636,-0.108 -0.9383,-0.24l-0.8632,-0.24v-5.6733v-5.6734h-27.3311h-27.3311v17.8842v17.8842h15.1203h15.1202l0.24,0.8632c0.132,0.4747 0.24,0.8966 0.24,0.9375c0,0.041 -7.3342,0.074 -16.2981,0.074h-16.2981l0.036,-24.699zM-16.61109,752.01257v-4.1105h2.2355h2.2356v-3.1009v-3.1009h8.0767h8.0767v-2.2355v-2.2355h-3.1009h-3.1009v-4.9759v-4.9758h7.2114h7.2114v4.9758v4.9759h-3.173h-3.173v2.2355v2.2355h2.8214h2.8214l-0.4631,0.6449c-0.9326,1.2985 -0.7604,1.2301 -3.0941,1.2301h-2.0856v2.1634v2.1634h1.0096c0.5552,0 1.0095,0.049 1.0095,0.1082c-0.0001,0.059 -0.1575,0.6923 -0.3498,1.4062c-0.4881,1.812 -0.6647,3.1437 -0.6708,5.0582l-0.01,1.6484h-3.6696h-3.6697v-4.1105v-4.1105h2.2356h2.2355v-2.1634v-2.1634h-7.1393h-7.1392v2.1634v2.1634h2.2355h2.2355v4.1105v4.1105h-5.4085h-5.4085v-4.1105z"></path></g></g></svg>