<svg version="1.1" xmlns="http://www.w3.org/2000/svg" xmlns:xlink="http://www.w3.org/1999/xlink" width="800px" height="800px" viewBox="0,0,256,256"><g fill="#37c3bf" fill-rule="nonzero" stroke="none" stroke-width="1" stroke-linecap="butt" stroke-linejoin="miter" stroke-miterlimit="10" stroke-dasharray="" stroke-dashoffset="0" font-family="none" font-weight="none" font-size="none" text-anchor="none" style="mix-blend-mode: normal"><g transform="scale(10.66667,10.66667)"><path d="M22,12c0,-5.51 -4.49,-10 -10,-10c-5.51,0 -10,4.49 -10,10c0,2.9 1.25,5.51 3.23,7.34c0,0.01 0,0.01 -0.01,0.02c0.1,0.1 0.22,0.18 0.32,0.27c0.06,0.05 0.11,0.1 0.17,0.14c0.18,0.15 0.38,0.29 0.57,0.43c0.07,0.05 0.13,0.09 0.2,0.14c0.19,0.13 0.39,0.25 0.6,0.36c0.07,0.04 0.15,0.09 0.22,0.13c0.2,0.11 0.41,0.21 0.63,0.3c0.08,0.04 0.16,0.08 0.24,0.11c0.22,0.09 0.44,0.17 0.66,0.24c0.08,0.03 0.16,0.06 0.24,0.08c0.24,0.07 0.48,0.13 0.72,0.19c0.07,0.02 0.14,0.04 0.22,0.05c0.28,0.06 0.56,0.1 0.85,0.13c0.04,0 0.08,0.01 0.12,0.02c0.34,0.03 0.68,0.05 1.02,0.05c0.34,0 0.68,-0.02 1.01,-0.05c0.04,0 0.08,-0.01 0.12,-0.02c0.29,-0.03 0.57,-0.07 0.85,-0.13c0.07,-0.01 0.14,-0.04 0.22,-0.05c0.24,-0.06 0.49,-0.11 0.72,-0.19c0.08,-0.03 0.16,-0.06 0.24,-0.08c0.22,-0.08 0.45,-0.15 0.66,-0.24c0.08,-0.03 0.16,-0.07 0.24,-0.11c0.21,-0.09 0.42,-0.19 0.63,-0.3c0.08,-0.04 0.15,-0.09 0.22,-0.13c0.2,-0.12 0.4,-0.23 0.6,-0.36c0.07,-0.04 0.13,-0.09 0.2,-0.14c0.2,-0.14 0.39,-0.28 0.57,-0.43c0.06,-0.05 0.11,-0.1 0.17,-0.14c0.11,-0.09 0.22,-0.18 0.32,-0.27c0,-0.01 0,-0.01 -0.01,-0.02c1.99,-1.83 3.24,-4.44 3.24,-7.34zM16.94,16.97c-2.71,-1.82 -7.15,-1.82 -9.88,0c-0.44,0.29 -0.8,0.63 -1.1,1c-1.52,-1.54 -2.46,-3.65 -2.46,-5.97c0,-4.69 3.81,-8.5 8.5,-8.5c4.69,0 8.5,3.81 8.5,8.5c0,2.32 -0.94,4.43 -2.46,5.97c-0.29,-0.37 -0.66,-0.71 -1.1,-1z"></path><path d="M12,6.92969c-2.07,0 -3.75,1.68 -3.75,3.75001c0,2.03 1.59,3.68 3.7,3.74c0.03,0 0.07,0 0.09,0c0.02,0 0.05,0 0.07,0c0.01,0 0.02,0 0.02,0c2.02,-0.07 3.61,-1.71 3.62,-3.74c0,-2.07001 -1.68,-3.75001 -3.75,-3.75001z"></path></g></g></svg>