<svg version="1.1" xmlns="http://www.w3.org/2000/svg" xmlns:xlink="http://www.w3.org/1999/xlink" width="800px" height="800px" viewBox="0,0,256,256"><g fill="#37c3bf" fill-rule="nonzero" stroke="none" stroke-width="1" stroke-linecap="butt" stroke-linejoin="miter" stroke-miterlimit="10" stroke-dasharray="" stroke-dashoffset="0" font-family="none" font-weight="none" font-size="none" text-anchor="none" style="mix-blend-mode: normal"><g transform="translate(-16,-8) scale(16,16)"><path d="M8,1c-1.65625,0 -3,1.34375 -3,3c0,1.65625 1.34375,3 3,3c1.65625,0 3,-1.34375 3,-3c0,-1.65625 -1.34375,-3 -3,-3zM6.5,8c-2.49219,0 -4.5,2.00781 -4.5,4.5v0.5c0,1.10938 0.89063,2 2,2h6v-1h-3v-4h3v-1.97266c-0.16406,-0.01953 -0.33203,-0.02734 -0.5,-0.02734zM11,8v3h-3v2h3v3h2v-3h3v-2h-3v-3zM11,8"></path></g></g></svg>