<svg version="1.1" xmlns="http://www.w3.org/2000/svg" xmlns:xlink="http://www.w3.org/1999/xlink" width="800px" height="800px" viewBox="0,0,256,256"><g fill="#37c3bf" fill-rule="nonzero" stroke="none" stroke-width="1" stroke-linecap="butt" stroke-linejoin="miter" stroke-miterlimit="10" stroke-dasharray="" stroke-dashoffset="0" font-family="none" font-weight="none" font-size="none" text-anchor="none" style="mix-blend-mode: normal"><g transform="translate(0,0) scale(18.28571,18.28571)"><path d="M12.49908,12.25525c0.0968,0 0.18838,-0.0436 0.24934,-0.11884c0.06096,-0.0752 0.08473,-0.17385 0.06473,-0.26853l-0.20215,-0.95662c0.11513,-0.11137 0.18749,-0.26686 0.18749,-0.43975c0,-0.182 -0.08106,-0.34343 -0.20688,-0.45558v-3.32202l-0.81033,0.50146v2.82056c-0.12581,0.11215 -0.2069,0.27358 -0.2069,0.45558c0,0.17291 0.07239,0.32841 0.18751,0.43975l-0.20217,0.95662c-0.02,0.0947 0.0038,0.19335 0.06473,0.26853c0.06096,0.0752 0.15254,0.11884 0.24934,0.11884zM12.77374,4.75539l-5.27164,-3.2633c-0.15439,-0.0951 -0.32843,-0.14284 -0.50247,-0.14284c-0.17404,0 -0.34821,0.0477 -0.50166,0.14284l-5.27171,3.2633c-0.14077,0.0871 -0.22626,0.24094 -0.22626,0.40651c0,0.1656 0.08549,0.31949 0.22626,0.40673l5.27169,3.26333c0.15345,0.0952 0.32762,0.14284 0.50166,0.14284c0.17404,0 0.34811,-0.0477 0.50247,-0.14284l5.27166,-3.26333c0.14077,-0.0872 0.22626,-0.24113 0.22626,-0.40673c0,-0.16557 -0.08549,-0.31946 -0.22626,-0.40651zM6.99961,9.78508c-0.32838,0 -0.64888,-0.0912 -0.92824,-0.26411l-3.075,-1.90368v3.27796c0,0.97016 1.79316,1.7555 4.00324,1.7555c2.21087,0 4.00388,-0.78536 4.00388,-1.7555v-3.27796l-3.07488,1.90368c-0.27936,0.17291 -0.60063,0.26411 -0.92901,0.26411z"></path></g></g></svg>