<svg version="1.1" xmlns="http://www.w3.org/2000/svg" xmlns:xlink="http://www.w3.org/1999/xlink" width="800px" height="800px" viewBox="0,0,256,256"><g fill="#37c3bf" fill-rule="nonzero" stroke="none" stroke-width="1" stroke-linecap="butt" stroke-linejoin="miter" stroke-miterlimit="10" stroke-dasharray="" stroke-dashoffset="0" font-family="none" font-weight="none" font-size="none" text-anchor="none" style="mix-blend-mode: normal"><g transform="translate(0.00063,0.0011) scale(1.10019,1.10019)"><g id="XMLID_350_"><g id="XMLID_351_"><path d="M97.688,61.344h120c8.284,0 15,-6.716 15,-15c0,-8.284 -6.716,-15 -15,-15h-120c-8.284,0 -15,6.716 -15,15c0,8.284 6.715,15 15,15z" id="XMLID_352_"></path></g><g id="XMLID_439_"><path d="M217.688,101.344h-120c-8.284,0 -15,6.716 -15,15c0,8.284 6.716,15 15,15h120c8.284,0 15,-6.716 15,-15c0,-8.284 -6.716,-15 -15,-15z" id="XMLID_440_"></path></g><g id="XMLID_441_"><path d="M217.688,171.344h-120c-8.284,0 -15,6.716 -15,15c0,8.284 6.716,15 15,15h120c8.284,0 15,-6.716 15,-15c0,-8.284 -6.716,-15 -15,-15z" id="XMLID_443_"></path></g><g id="XMLID_444_"><path d="M48.785,104.408l-9.989,-1.452l-4.467,-9.052c-1.264,-2.56 -3.87,-4.181 -6.726,-4.181c-2.854,0 -5.462,1.621 -6.726,4.181l-4.468,9.052l-9.988,1.452c-2.825,0.41 -5.173,2.389 -6.055,5.104c-0.882,2.715 -0.146,5.695 1.897,7.688l7.228,7.045l-1.707,9.949c-0.483,2.814 0.674,5.658 2.983,7.336c1.307,0.95 2.853,1.433 4.409,1.433c1.193,0 2.392,-0.285 3.489,-0.861l8.936,-4.698l8.936,4.698c1.098,0.577 2.296,0.861 3.489,0.861c0.007,0 0.015,0 0.021,0c4.142,-0.001 7.499,-3.358 7.499,-7.5c0,-0.629 -0.077,-1.241 -0.223,-1.825l-1.612,-9.393l7.228,-7.045c2.045,-1.993 2.78,-4.973 1.898,-7.688c-0.879,-2.715 -3.227,-4.694 -6.052,-5.104z" id="XMLID_445_"></path></g><g id="XMLID_446_"><path d="M48.785,34.408l-9.989,-1.452l-4.467,-9.052c-1.264,-2.56 -3.87,-4.181 -6.726,-4.181c-2.854,0 -5.462,1.621 -6.726,4.181l-4.468,9.052l-9.988,1.452c-2.825,0.41 -5.173,2.389 -6.055,5.104c-0.882,2.715 -0.146,5.695 1.897,7.688l7.228,7.045l-1.707,9.949c-0.483,2.814 0.674,5.658 2.983,7.336c1.307,0.95 2.853,1.433 4.409,1.433c1.193,0 2.392,-0.285 3.489,-0.861l8.936,-4.698l8.936,4.698c1.098,0.577 2.296,0.861 3.489,0.861c0.007,0 0.015,0 0.021,0c4.142,0 7.499,-3.358 7.499,-7.5c0,-0.629 -0.077,-1.241 -0.223,-1.825l-1.612,-9.393l7.228,-7.045c2.045,-1.993 2.78,-4.973 1.898,-7.688c-0.879,-2.715 -3.227,-4.694 -6.052,-5.104z" id="XMLID_447_"></path></g><g id="XMLID_448_"><path d="M48.785,174.408l-9.989,-1.452l-4.467,-9.052c-1.264,-2.56 -3.87,-4.181 -6.726,-4.181c-2.854,0 -5.462,1.621 -6.726,4.181l-4.468,9.052l-9.988,1.452c-2.825,0.41 -5.173,2.389 -6.055,5.104c-0.882,2.715 -0.146,5.695 1.897,7.688l7.228,7.045l-1.707,9.949c-0.483,2.814 0.674,5.658 2.983,7.336c1.307,0.95 2.853,1.433 4.409,1.433c1.193,0 2.392,-0.285 3.489,-0.861l8.936,-4.698l8.936,4.698c1.098,0.577 2.296,0.861 3.489,0.861c0.007,0 0.015,0 0.021,0c4.142,-0.001 7.499,-3.358 7.499,-7.5c0,-0.629 -0.077,-1.241 -0.223,-1.825l-1.612,-9.393l7.228,-7.045c2.045,-1.993 2.78,-4.973 1.898,-7.688c-0.879,-2.715 -3.227,-4.694 -6.052,-5.104z" id="XMLID_449_"></path></g></g></g></g></svg>