<svg version="1.1" xmlns="http://www.w3.org/2000/svg" xmlns:xlink="http://www.w3.org/1999/xlink" width="800px" height="800px" viewBox="0,0,256,256"><g fill="#37c3bf" fill-rule="nonzero" stroke="none" stroke-width="1" stroke-linecap="butt" stroke-linejoin="miter" stroke-miterlimit="10" stroke-dasharray="" stroke-dashoffset="0" font-family="none" font-weight="none" font-size="none" text-anchor="none" style="mix-blend-mode: normal"><g transform="scale(0.256,0.256)"><g><g transform="translate(0,511) scale(0.1,-0.1)"><path d="M3203.3,3458.3v-1551.6h-1551.6h-1551.7v-163.3v-163.4h1551.7h1551.7v-1470v-1470h-1551.7h-1551.7v-163.3v-163.3h1551.7h1551.7v-1551.7v-1551.7h163.3h163.3v1551.7v1551.7h1470h1470v-1551.7v-1551.7h163.3h163.3v1551.7v1551.7h1551.7h1551.7v163.3v163.3h-1551.7h-1551.6v1470v1470h1551.7h1551.6v163.3v163.3h-1551.7h-1551.6v1551.7v1551.7h-163.3h-163.4v-1551.7v-1551.6h-1470h-1470v1551.7v1551.6h-163.3h-163.3v-1551.7zM6470,110v-1470h-1470h-1470v1470v1470h1470h1470z"></path><path d="M4736.6,1386c-365.5,-79.6 -728.9,-365.5 -896.3,-706.4c-191.9,-390 -191.9,-749.3 0,-1139.3c120.5,-245 345,-469.6 590,-590c390,-191.9 749.3,-191.9 1139.3,0c245,120.4 469.6,345 590,590c191.9,390 191.9,749.3 0,1139.3c-120.4,245 -345,469.6 -590,590c-281.7,140.9 -549.2,177.7 -833,116.4zM5255.2,1059.4c434.9,-114.4 724.8,-492.1 724.8,-949.4c0,-553.3 -426.7,-980 -980,-980c-553.3,0 -980,426.7 -980,980c0,651.3 602.3,1112.7 1235.2,949.4z"></path><path d="M8003.3,4652.7c-365.4,-79.6 -728.9,-365.5 -896.3,-706.4c-93.9,-189.9 -147,-394 -147,-569.6c0,-463.5 308.3,-949.4 737,-1159.7c390,-191.9 749.3,-191.9 1139.3,0c245,120.5 469.6,345 590,590c191.9,390 191.9,749.3 0,1139.2c-120.4,245 -345,469.6 -590,590c-281.8,141 -549.2,177.8 -833,116.5zM8521.9,4326c434.9,-114.3 724.8,-492 724.8,-949.4c0,-553.3 -426.7,-980 -980,-980c-553.3,0 -980,426.7 -980,980c0,651.4 602.3,1112.8 1235.2,949.4z"></path><path d="M590,1243.1l-112.3,-112.3l510.4,-510.4l510.4,-510.4l-510.4,-510.4l-510.4,-510.4l118.4,-116.4l116.4,-118.4l510.4,510.4l510.4,510.4l510.4,-510.4l510.4,-510.4l116.4,118.4l118.5,116.4l-510.4,510.4l-510.5,510.4l510.4,510.4l510.4,510.4l-118.4,116.4l-116.4,118.4l-510.4,-510.4l-510.4,-510.4l-506.3,506.3c-277.7,277.7 -510.4,504.3 -514.5,504.3c-6.1,0 -61.3,-51 -122.5,-112.3z"></path><path d="M1470,-1880.6c-365.5,-79.6 -728.9,-365.5 -896.3,-706.4c-93.9,-189.9 -147,-394.1 -147,-569.6c0,-463.5 308.3,-949.4 737,-1159.7c390,-191.9 749.3,-191.9 1139.2,0c245,120.4 469.6,345 590,590c191.9,390 191.9,749.3 0,1139.3c-120.5,245 -345,469.6 -590,590c-281.7,140.9 -549.2,177.6 -832.9,116.4zM1988.5,-2207.3c434.9,-114.3 724.8,-492 724.8,-949.4c0,-553.3 -426.7,-980 -980,-980c-553.3,0 -980,426.7 -980,980c0,651.3 602.3,1112.7 1235.2,949.4z"></path><path d="M7123.3,-2023.5l-112.3,-112.3l510.4,-510.4l510.4,-510.4l-510.4,-510.4l-510.4,-510.5l118.4,-116.4l116.4,-118.4l510.4,510.4l510.4,510.4l510.4,-510.4l510.4,-510.4l116.4,118.4l118.4,116.4l-510.4,510.4l-510.4,510.4l510.4,510.4l510.4,510.4l-118.4,116.4l-116.3,118.5l-510.4,-510.4l-510.4,-510.4l-506.3,506.3c-277.7,277.7 -510.4,504.3 -514.5,504.3c-6.2,0 -61.3,-51.1 -122.6,-112.3z"></path></g></g></g></g></svg>